<?xml version="1.0" encoding="UTF-8"?>
<svg xmlns="http://www.w3.org/2000/svg" version="1.1" viewBox="0 0 50 50">
  <defs>
    <style>
      .cls-1 {
        fill: salmon;
      }
    </style>
  </defs>
  <!-- Generator: Adobe Illustrator 28.7.1, SVG Export Plug-In . SVG Version: 1.2.0 Build 142)  -->
  <g>
    <g id="Layer_1">
      <g>
        <path d="M8.57,41.51c0,.14.11.24.24.24h19.88c.14,0,.24-.11.24-.24,0-.14-.11-.24-.24-.24h-2.49c1.04-1.05,1.74-2.4,2-3.85.65-.51,1.1-1.27,1.19-2.14h3.42c1.22,0,2.21-.99,2.21-2.21v-2.28c.57-.12.99-.62.99-1.22v-4.09c2.8-.58,4.8-3.04,4.8-5.91v-2.44c0-.59-.42-1.09-.98-1.21v-.81h2.42c.14,0,.24-.11.24-.24,0-.14-.11-.24-.24-.24h-2.42v-1.03c.02-.18.16-1.44-.58-2.21-.4-.41-.96-.6-1.68-.57-.02-.47-.41-.85-.9-.85s-.9.4-.9.9v.75c0,.5.4.9.9.9s.9-.4.9-.9v-.3c.58-.03,1.02.11,1.32.42.62.64.44,1.8.44,1.82,0,.01,0,.02,0,.04v1.05h-1.32s-.74-1.07-.74-1.07c-.06-.08-.16-.12-.25-.1-.1.02-.17.1-.19.2l-.52,3.04-1.32-4.71c-.03-.1-.12-.18-.23-.18-.1,0-.2.06-.24.16l-1.02,2.94-.44-1.45c-.03-.1-.12-.17-.22-.17-.1,0-.2.05-.24.14l-.59,1.26-1.85-.02v-1.09s0-.02,0-.04c0-.01-.17-1.18.44-1.82.3-.31.74-.44,1.32-.41v.3c0,.5.4.9.9.9s.9-.4.9-.9v-.75c0-.5-.4-.9-.9-.9s-.87.38-.9.85c-.72-.03-1.28.16-1.68.57-.74.77-.6,2.03-.58,2.21v1.07l-2.46-.03c-.15,0-.25.11-.25.24,0,.14.11.25.24.25l2.47.03v.78c-.56.12-.98.62-.98,1.21v2.44c0,2.87,2.01,5.33,4.8,5.91v4.09c0,.6.43,1.11,1,1.22v2.28c0,.95-.77,1.72-1.72,1.72h-3.41c-.07-1.36-1-2.49-2.26-2.85-.69-1.06-1.64-1.86-2.83-2.38.13-.29.21-.65.21-1.07,0-1.91-1.49-4.13-3.42-4.21l-2.04-2.1c-.34-.39-.76-.7-1.22-.93v-1.31s.94-.3.94-.3c1.01-.32,1.63-1.32,1.46-2.37l-.54-3.4s0,0,0-.01c0,0,0-.02,0-.03l-.19-.54c-.47-1.38-1.93-2.12-3.32-1.69l-1.78.56c-1.38.43-2.17,1.91-1.76,3.3l.23.79c.03.09.08.27.16.5-.63.29-2.26,1.32-2.64,4.29,0,.07.01.14.06.19.05.05.11.08.18.08.03,0,2.76-.04,3.72-2.56l.15.16c.3.32.47.72.51,1.16l-.06.77c-.84.12-1.55.7-1.83,1.51l-.73,2.16s0,0,0,0l-.21.61-1.71,6c-.31,1.08.15,2.24,1.1,2.82l2.05,1.25v.11c-.17.63-.41,1.29-.73,1.93-.51,1.03-1.05,2.53-.84,4.02h-3.3c-.14,0-.25.11-.25.25ZM32.44,10.85c0-.23.18-.41.41-.41s.41.18.41.41v.75c0,.23-.18.41-.41.41s-.41-.18-.41-.41v-.75ZM37.1,11.6c0,.23-.18.41-.41.41s-.41-.18-.41-.41v-.75c0-.23.18-.41.41-.41s.41.18.41.41v.75ZM39.35,15.1v.8c-.58.11-1.02.61-1.02,1.22v2.44c0,1.96-1.6,3.56-3.56,3.56s-3.56-1.6-3.56-3.56v-2.44c0-.61-.44-1.11-1.02-1.22v-.76l2,.03c.11,0,.18-.05.23-.14l.38-.82.47,1.56c.03.1.12.17.23.17.12,0,.2-.06.24-.16l1.01-2.91,1.4,5c.03.11.13.18.24.18,0,0,0,0,.01,0,.11,0,.21-.09.23-.2l.61-3.53.48.68c.05.07.12.11.2.11h1.44ZM34.77,30.32c-.42,0-.75-.34-.75-.75v-4.29c0-.12-.09-.22-.2-.24-2.67-.47-4.6-2.76-4.6-5.47v-2.44c0-.42.34-.75.75-.75s.75.34.75.75v2.44c0,2.23,1.82,4.05,4.05,4.05s4.05-1.82,4.05-4.05v-2.44c0-.42.34-.75.75-.75s.75.34.75.75v2.44c0,2.7-1.93,5-4.6,5.47-.12.02-.2.12-.2.24v4.29c0,.42-.34.75-.75.75ZM12.7,25.27l.21-.61c.25-.75.96-1.26,1.76-1.26.25,0,.5.05.74.15.68.3,1.12.97,1.12,1.71,0,.21-.04.42-.1.61l-1.93,5.45c-.04.1,0,.22.09.28l5.42,3.85s.02.01.03.02c.28.14.59.22.89.22h1.04s-.28.49-.28.49c-.05.07-.05.16,0,.24l.83,1.61c.31.59.09,1.32-.49,1.64-.35.19-.81.2-1.17.01-.14-.08-.27-.18-.37-.3l-.76-.93c-.09-.12-.2-.22-.31-.32-.14-.12-.3-.23-.47-.32l-4.85-2.96s0,0,0,0l-2.18-1.33c-.77-.47-1.13-1.4-.89-2.27l1.7-5.99ZM13.25,17.2c.2.46.46.95.76,1.17-.63,1.95-2.36,2.34-3.05,2.42.41-2.46,1.77-3.34,2.29-3.59ZM19.05,13.44l.1.3c-.56.17-1.89.66-2.49,1.7-.28.48-.36,1.02-.25,1.6-.72-.08-1.73.03-2.24.83-.17-.2-.38-.61-.55-1.06,0,0,0,0,0,0,0,0,0,0,0,0-.09-.23-.17-.47-.24-.69l-.23-.78c-.34-1.14.3-2.34,1.43-2.7l1.78-.56c1.13-.35,2.32.25,2.71,1.38ZM17.35,19.76v1.28c-.42-.14-.87-.22-1.32-.22h-.54l.05-.73s0-.03,0-.04c-.05-.55-.27-1.06-.64-1.47l-.35-.38c.56-1,2.12-.61,2.14-.6.09.02.18,0,.24-.07s.08-.16.05-.24c-.19-.59-.15-1.12.11-1.59.5-.87,1.66-1.31,2.18-1.47l.48,3c-.3-.03-.93-.16-1.21-.64-.07-.12-.22-.15-.34-.09s-.15.22-.09.34c.43.72,1.33.86,1.67.89-.04.67-.48,1.25-1.14,1.46l-1.11.35c-.1.03-.17.13-.17.23ZM26.27,37.59c-1.46,0-2.65-1.19-2.65-2.65s1.19-2.65,2.65-2.65,2.56,1.1,2.64,2.49h-.9c-.08-.89-.83-1.6-1.74-1.6-.97,0-1.76.79-1.76,1.76,0,.97.79,1.76,1.76,1.76.86,0,1.57-.62,1.72-1.43h.9c-.16,1.3-1.28,2.32-2.63,2.32ZM25.88,35.02c0,.14.11.24.24.24h1.37c-.15.54-.63.94-1.22.94-.7,0-1.27-.57-1.27-1.27,0-.7.57-1.27,1.27-1.27.64,0,1.17.48,1.25,1.11h-1.4c-.14,0-.24.11-.24.24ZM25.49,41.26h-12.88c-.23-1.39.29-2.82.78-3.8.32-.65.57-1.32.74-1.99l4.55,2.78c.15.08.28.17.39.26.09.08.18.17.25.26l.77.93c.14.17.32.32.52.42.25.13.53.2.8.2s.58-.07.83-.21c.82-.46,1.12-1.47.69-2.3l-.77-1.48.22-.35c.1-.15.1-.34.02-.5-.09-.16-.25-.26-.44-.27h-1.04c-.22,0-.44-.05-.65-.15l-5.26-3.73,1.86-5.28c.09-.25.13-.51.13-.78,0-.93-.55-1.78-1.41-2.16-.3-.13-.61-.19-.93-.19-.48,0-.92.15-1.3.4l.27-.81c.25-.72.92-1.2,1.68-1.2h.72c1.02,0,2,.44,2.67,1.2l2.11,2.17s0,0,0,0c.02.02.04.03.06.04.04.02.07.03.11.03,0,0,0,0,0,0,1.69,0,3.04,2.04,3.04,3.73,0,1.4-.94,2.02-3.04,2.02-.16,0-.31-.01-.47-.04,0,0-.01,0-.02,0-.11-.02-.23.04-.27.15-.01.03-.02.07-.02.1v.51c0,.14.11.24.24.24s.24-.11.24-.24v-.24c.1,0,.19.01.29.01.65,0,2.26,0,3.07-1.01.98.42,1.79,1.03,2.4,1.84-.06,0-.12,0-.19,0-1.73,0-3.14,1.41-3.14,3.14s1.41,3.14,3.14,3.14c.49,0,.95-.11,1.36-.31-.34,1.35-1.08,2.57-2.14,3.49Z"/>
        <path d="M36.23,19.99c.09-.11.07-.26-.04-.34-.11-.09-.26-.07-.34.04l-1.02,1.26-1.38-2.82c-.06-.12-.21-.17-.33-.11-.12.06-.17.21-.11.33l1.55,3.16c.04.08.11.13.19.14,0,0,.02,0,.03,0,.07,0,.14-.03.19-.09l1.26-1.56Z"/>
      </g>
      <path class="cls-1" d="M32.44,10.85c0-.23.18-.41.41-.41s.41.18.41.41v.75c0,.23-.18.41-.41.41s-.41-.18-.41-.41v-.75Z"/>
      <path class="cls-1" d="M37.1,11.6c0,.23-.18.41-.41.41s-.41-.18-.41-.41v-.75c0-.23.18-.41.41-.41s.41.18.41.41v.75Z"/>
      <path class="cls-1" d="M34.77,30.32c-.42,0-.75-.34-.75-.75v-4.29c0-.12-.09-.22-.2-.24-2.67-.47-4.6-2.76-4.6-5.47v-2.44c0-.42.34-.75.75-.75s.75.34.75.75v2.44c0,2.23,1.82,4.05,4.05,4.05s4.05-1.82,4.05-4.05v-2.44c0-.42.34-.75.75-.75s.75.34.75.75v2.44c0,2.7-1.93,5-4.6,5.47-.12.02-.2.12-.2.24v4.29c0,.42-.34.75-.75.75Z"/>
      <path class="cls-1" d="M25.88,35.02c0,.14.11.24.24.24h1.37c-.15.54-.63.94-1.22.94-.7,0-1.27-.57-1.27-1.27,0-.7.57-1.27,1.27-1.27.64,0,1.17.48,1.25,1.11h-1.4c-.14,0-.24.11-.24.24Z"/>
    </g>
  </g>
</svg>