<?xml version="1.0" encoding="UTF-8"?>
<svg xmlns="http://www.w3.org/2000/svg" version="1.1" viewBox="0 0 50 50">
  <defs>
    <style>
      .cls-1 {
        fill: salmon;
      }
    </style>
  </defs>
  <!-- Generator: Adobe Illustrator 28.7.1, SVG Export Plug-In . SVG Version: 1.2.0 Build 142)  -->
  <g>
    <g id="Layer_1">
      <g>
        <path d="M32.27,20.52v-.98c1.18-.49,1.96-1.65,1.96-2.94,0-1.76-1.43-3.19-3.19-3.19s-3.19,1.43-3.19,3.19c0,0,0,.01,0,.02,0,0,0,0,0,0,0,0,0,0,0,0,0,.15.01.29.03.43-.15-.06-.32-.1-.49-.09-.3.02-.51.2-.59.28-.27.24-.38.6-.41.95l-.62-1.16c-.27-.51-.73-.87-1.28-1v-.96c0-.54-.44-.98-.98-.98h-1.73c-.27,0-.49-.22-.49-.49v-.05c0-.27.22-.49.49-.49.54,0,.98-.44.98-.98,0-.14-.11-.24-.24-.24s-.24.11-.24.24c0,.27-.22.49-.49.49-.54,0-.98.44-.98.98v.05c0,.54.44.98.98.98h1.73c.28,0,.49.22.49.49v.9c-.54,0-1.05.2-1.43.59l-.76.76-.15-.15c-.45-.45-1.24-.45-1.69,0-.46.47-.46,1.22,0,1.69l1.4,1.4c.25.25.69.25.94,0l.21-.21v.76c0,2.1,1.71,3.81,3.81,3.81h1.84c2.26,0,4.09-1.84,4.09-4.1Z"/>
        <path d="M26.96,28.29c.14-.02.23-.1.29-.15,2.35-1.96,4.78-3.99,7.13-6.04.96-.83,1.88-1.65,2.75-2.56.4-.42.71-.78.94-1.22.34-.64.5-1.38.49-2.2-.02-1.37-.57-2.9-1.42-3.98-1.2-1.52-3.08-2.43-5.02-2.43-2.07,0-3.99.99-5.2,2.67-.44-.6-.97-1.13-1.56-1.52,0,0-.02-.02-.03-.02-1.05-.73-2.3-1.12-3.61-1.12-3.53,0-6.4,2.88-6.4,6.41,0,.7.11,1.39.34,2.04.24.68.89,1.82,1.75,2.68,2.12,2.18,4.66,4.02,7.11,5.8.68.5,1.36.99,2.03,1.49.07.05.2.15.37.15.01,0,.05,0,.06,0ZM26.83,27.76c-.67-.5-1.35-.99-2.03-1.49-2.43-1.77-4.95-3.6-7.05-5.75-.86-.87-1.45-1.97-1.64-2.5-.21-.6-.31-1.23-.31-1.88,0-3.27,2.65-5.92,5.91-5.92,1.21,0,2.36.36,3.31,1.02.01.01.03.02.04.03.64.42,1.21,1.01,1.65,1.7.09.14.32.14.41,0,1.1-1.72,2.97-2.74,5-2.74,1.79,0,3.52.84,4.63,2.24.79,1,1.3,2.41,1.32,3.68.01.74-.14,1.4-.43,1.96-.2.38-.49.72-.86,1.11-.85.89-1.77,1.7-2.71,2.53-2.35,2.04-4.78,4.07-7.13,6.03,0,0-.03.02-.04.03-.02,0-.04-.02-.07-.05Z"/>
        <path d="M23.5,31.76l-2.08-1.98c-.46-.44-.82-.95-1.07-1.53l-.38-.87c-.24-.55-.78-.9-1.38-.9-.48,0-.92.22-1.21.6-.29.38-.38.86-.24,1.32l.7,2.45-2.95-1.27s-.06-.02-.09-.02c-.12,0-.3-.26-.54-.77l-2.16-4.48c-.38-.78-1.32-1.12-2.11-.75-.38.18-.67.5-.82.9s-.12.83.07,1.22l2.97,6.16c.08.17.19.32.32.45l5.44,5.44v4.03c0,.14.11.24.24.24h7.15c.07,0,.14-.03.18-.08.05-.05.07-.12.06-.19l-.76-7.25c-.11-1.05-.59-2.02-1.35-2.75ZM18.47,41.53v-3.89c0-.06-.03-.13-.07-.17l-5.52-5.52c-.09-.09-.17-.2-.22-.31l-2.97-6.16c-.13-.26-.14-.56-.05-.84s.3-.5.56-.63c.54-.26,1.2-.03,1.46.52l2.11,4.39.04.08c.19.4.47.99.92,1.04l3.28,1.41.32,1.11c.04.13.17.21.3.17.13-.04.21-.17.17-.3l-.35-1.21s0,0,0-.01l-.85-2.94c-.09-.31-.03-.64.16-.89s.49-.41.81-.41c.4,0,.77.24.93.61l.38.87c.28.64.68,1.2,1.18,1.68l2.08,1.98c.68.65,1.11,1.52,1.2,2.45l.73,6.98h-6.64Z"/>
        <path d="M43.13,24.48c-.14-.4-.43-.72-.82-.91-.79-.37-1.73-.04-2.11.75l-2.12,4.39-.04.08c-.24.51-.42.77-.54.77-.03,0-.06,0-.09.02l-2.95,1.27.7-2.45c.13-.46.04-.94-.24-1.32s-.73-.6-1.21-.6c-.6,0-1.14.35-1.38.9l-.38.87c-.25.58-.61,1.09-1.07,1.53l-2.08,1.98c-.76.73-1.24,1.7-1.35,2.75l-.76,7.25c0,.07.02.14.06.19.05.05.11.08.18.08h7.15c.14,0,.24-.11.24-.25v-4.03l5.44-5.44c.13-.13.24-.28.32-.45l2.97-6.16c.19-.38.21-.81.07-1.22ZM42.62,25.48l-2.97,6.16c-.06.12-.13.22-.22.31l-5.52,5.52s-.07.11-.07.17v3.89h-6.64s.73-6.98.73-6.98c.1-.93.53-1.8,1.2-2.45l2.08-1.98c.5-.48.9-1.05,1.18-1.68l.38-.87c.16-.37.53-.61.93-.61.32,0,.62.15.81.41.19.26.25.58.17.89l-1.2,4.17c-.04.13.04.27.17.3.13.04.27-.04.3-.17l.32-1.11,3.28-1.41c.45-.05.73-.65.92-1.04l2.15-4.48c.26-.54.91-.77,1.46-.52.27.13.47.35.56.63.1.28.08.58-.05.84Z"/>
      </g>
      <path class="cls-1" d="M23.02,20.81v-1.25l.67-.67c.1-.1.1-.25,0-.35s-.25-.1-.35,0l-1.37,1.37c-.07.07-.18.07-.25,0l-1.4-1.4c-.27-.27-.27-.72,0-.99s.73-.27.99,0l.33.33c.1.1.25.1.35,0l.93-.93c.35-.35.82-.5,1.3-.43.48.07.89.36,1.12.79l2.06,3.88c.04.08.13.13.22.13.04,0,.08,0,.11-.03.12-.06.16-.21.1-.33l-.83-1.56c-.11-.35-.3-1.37.12-1.75.06-.05.17-.15.3-.16.21-.02.49.17.62.27.22.6.63,1.13,1.17,1.5.11.08.26.05.34-.06.08-.11.05-.26-.06-.34-.66-.46-1.08-1.19-1.15-1.99l.81-.06c.13-.01.24-.13.22-.26s-.13-.24-.26-.22l-.77.06c.13-1.36,1.29-2.43,2.68-2.43,1.49,0,2.7,1.21,2.7,2.7,0,1.14-.72,2.16-1.8,2.54,0,0,0,0,0,0-.02,0-.04.02-.06.03,0,0-.02,0-.02.02-.02.01-.03.03-.04.05,0,0-.01.02-.02.03,0,.02,0,.03-.01.05,0,.01,0,.03,0,.04,0,0,0,0,0,0v1.15c0,1.99-1.62,3.61-3.6,3.61h-1.84c-1.83,0-3.32-1.49-3.32-3.32Z"/>
    </g>
  </g>
</svg>