<?xml version="1.0" encoding="UTF-8"?>
<svg xmlns="http://www.w3.org/2000/svg" version="1.1" viewBox="0 0 50 50">
  <defs>
    <style>
      .cls-1 {
        fill: salmon;
      }
    </style>
  </defs>
  <!-- Generator: Adobe Illustrator 28.7.1, SVG Export Plug-In . SVG Version: 1.2.0 Build 142)  -->
  <g>
    <g id="Layer_1">
      <path d="M38.77,32.88l-5.76-16.86c-.02-.07-.08-.13-.16-.15-.07-.02-.15,0-.21.05-1.61,1.44-4.56,2.23-8.32,2.23-4.82,0-9.17-1.3-9.25-2.08,0-.11-.09-.19-.2-.2-.11-.01-.21.05-.24.15l-1.32,3.86s-.01.03-.01.04l-3.21,9.38s0,.01,0,.02l-1.22,3.56s-.02.07,0,.11c.2,1.32,7.97,3.52,15.89,3.52h0c4.03,0,9.72-.58,13.93-3.37.09-.06.12-.16.09-.26ZM13.64,20.33c1.49.96,6.03,2.52,10.98,2.52.2,0,.4,0,.6,0-.25.47-.39,1-.39,1.56,0,.18.02.36.05.53-.17-.08-.36-.13-.56-.12-.31.02-.52.21-.61.29-.31.28-.42.7-.43,1.11l-.71-1.33c-.32-.59-.88-.99-1.55-1.09-.67-.1-1.32.12-1.8.59l-.83.83-.19-.19c-.48-.48-1.26-.48-1.74,0-.23.23-.36.54-.36.87s.13.64.36.87l1.48,1.48c.26.26.69.26.95,0l.28-.28v.89c0,1.02.39,1.95,1.02,2.66-5.05-.44-8.86-1.51-9.65-2.18l3.08-9.02ZM26.58,32.13c-.45.18-.93.28-1.44.28h-1.95c-.52,0-1.01-.11-1.45-.31l-.83-.52c-.77-.65-1.27-1.63-1.27-2.72v-1.34l.72-.72c.09-.09.09-.23,0-.32s-.23-.09-.32,0l-1.45,1.45c-.09.09-.23.09-.31,0l-1.48-1.48c-.15-.15-.23-.34-.23-.55s.08-.4.23-.55c.3-.3.8-.3,1.1,0l.35.35s.1.07.16.07.12-.02.16-.07l.99-.99c.37-.37.89-.54,1.41-.47.52.08.96.39,1.21.86l2.19,4.11c.04.08.12.12.2.12.04,0,.07,0,.11-.03.11-.06.15-.2.09-.31l-.88-1.66c-.12-.4-.32-1.48.14-1.89.06-.06.19-.16.34-.18.25-.02.55.19.69.3.23.63.66,1.19,1.23,1.58.1.07.24.05.31-.06.07-.1.05-.24-.06-.31-.78-.54-1.24-1.43-1.24-2.38,0-.58.18-1.13.48-1.58l.38-.46c.52-.52,1.24-.85,2.04-.85.47,0,.91.11,1.3.31l.5.32c.66.53,1.09,1.34,1.09,2.25,0,1.22-.77,2.32-1.93,2.73,0,0,0,0,0,0-.02,0-.04.02-.05.03,0,0-.01,0-.02.01-.01.01-.02.03-.03.05,0,0-.01.02-.02.02,0,.01,0,.03-.01.05,0,.01,0,.03,0,.04,0,0,0,0,0,0v1.22c0,1.25-.6,2.35-1.51,3.06l-.89.52ZM29.44,28.56v-1.06c1.25-.51,2.08-1.73,2.08-3.09,0-.95-.4-1.8-1.03-2.41,1.22-.39,2.41-.93,3.51-1.66l3.07,8.97c-2.67,1.35-5.86,1.99-8.84,2.25.75-.78,1.22-1.83,1.22-3ZM14.91,16.62c1.16,1.14,5.67,1.99,9.41,1.99,2.63,0,6.17-.38,8.36-2.13l1.17,3.41c-1.18.79-2.46,1.37-3.77,1.76-.54-.37-1.19-.59-1.9-.59-1.09,0-2.06.53-2.67,1.33-5.33.22-10.36-1.54-11.72-2.51l1.12-3.26ZM24.75,36.06h0c-8.03,0-15.07-2.2-15.43-3.09l1.08-3.17c1.24.82,5.38,1.87,10.35,2.24.68.52,1.52.83,2.43.83h1.95c.93,0,1.78-.3,2.49-.8,3.43-.25,6.82-.95,9.59-2.33l1.07,3.12c-4.1,2.64-9.61,3.2-13.53,3.2Z"/>
      <path class="cls-1" d="M26.58,32.13c-.45.18-.93.28-1.44.28h-1.95c-.52,0-1.01-.11-1.45-.31l-.83-.52c-.77-.65-1.27-1.63-1.27-2.72v-1.34l.72-.72c.09-.09.09-.23,0-.32s-.23-.09-.32,0l-1.45,1.45c-.09.09-.23.09-.31,0l-1.48-1.48c-.15-.15-.23-.34-.23-.55s.08-.4.23-.55c.3-.3.8-.3,1.1,0l.35.35s.1.07.16.07.12-.02.16-.07l.99-.99c.37-.37.89-.54,1.41-.47.52.08.96.39,1.21.86l2.19,4.11c.04.08.12.12.2.12.04,0,.07,0,.11-.03.11-.06.15-.2.09-.31l-.88-1.66c-.12-.4-.32-1.48.14-1.89.06-.06.19-.16.34-.18.25-.02.55.19.69.3.23.63.66,1.19,1.23,1.58.1.07.24.05.31-.06.07-.1.05-.24-.06-.31-.78-.54-1.24-1.43-1.24-2.38,0-.58.18-1.13.48-1.58l.38-.46c.52-.52,1.24-.85,2.04-.85.47,0,.91.11,1.3.31l.5.32c.66.53,1.09,1.34,1.09,2.25,0,1.22-.77,2.32-1.93,2.73,0,0,0,0,0,0-.02,0-.04.02-.05.03,0,0-.01,0-.02.01-.01.01-.02.03-.03.05,0,0-.01.02-.02.02,0,.01,0,.03-.01.05,0,.01,0,.03,0,.04,0,0,0,0,0,0v1.22c0,1.25-.6,2.35-1.51,3.06l-.89.52Z"/>
    </g>
  </g>
</svg>